<?xml version="1.0" standalone="no"?>
<!DOCTYPE svg PUBLIC "-//W3C//DTD SVG 20010904//EN"
 "http://www.w3.org/TR/2001/REC-SVG-20010904/DTD/svg10.dtd">
<svg version="1.0" xmlns="http://www.w3.org/2000/svg"
 width="768.000000pt" height="768.000000pt" viewBox="0 0 768.000000 768.000000"
 preserveAspectRatio="xMidYMid meet">
<metadata>
Created by potrace 1.11, written by Peter Selinger 2001-2013
</metadata>
<g transform="translate(0.000000,768.000000) scale(0.100000,-0.100000)"
fill="#000000" stroke="none">
<path d="M1957 6324 c-352 -54 -660 -214 -918 -474 -170 -172 -286 -358 -359
-579 -59 -175 -74 -288 -67 -511 8 -265 48 -424 172 -677 205 -418 540 -787
1286 -1418 627 -529 778 -664 986 -878 294 -304 459 -545 547 -800 32 -91 33
-92 67 -95 69 -6 64 -131 67 1601 2 1454 1 1572 -14 1589 -16 17 -54 18 -848
18 -925 0 -876 4 -876 -65 0 -68 -44 -65 832 -65 l788 0 0 -1352 0 -1352 -37
62 c-109 179 -268 375 -469 577 -212 214 -388 370 -969 860 -727 613 -1041
958 -1250 1375 -62 124 -124 300 -150 425 -67 325 9 684 211 991 82 125 279
321 410 407 176 116 385 203 589 243 123 25 367 25 489 0 391 -77 731 -303
950 -631 89 -134 166 -299 201 -430 22 -84 29 -95 65 -95 44 0 54 21 47 104
-11 121 -82 293 -195 466 -252 388 -635 639 -1075 704 -127 19 -358 19 -480 0z"/>
<path d="M5311 6330 c-584 -74 -1079 -480 -1286 -1056 -70 -193 -65 -84 -65
-1408 0 -1153 1 -1204 18 -1219 24 -22 55 -21 75 1 15 17 17 79 17 680 l0 662
1330 0 c732 0 1330 -3 1330 -6 0 -14 -159 -236 -238 -334 -105 -128 -450 -476
-627 -629 -71 -63 -256 -220 -410 -349 -655 -552 -940 -822 -1152 -1092 -86
-109 -102 -140 -89 -170 20 -47 53 -53 88 -17 13 13 62 74 111 135 209 265
451 491 1216 1138 563 474 850 759 1073 1065 183 251 313 525 363 768 38 182
38 443 1 616 -126 591 -627 1067 -1258 1195 -119 24 -379 34 -497 20z m469
-128 c311 -68 565 -206 786 -426 230 -231 352 -465 406 -781 42 -245 -6 -531
-134 -806 l-41 -89 -1364 0 -1365 0 5 473 4 472 27 95 c90 316 290 606 556
806 99 75 308 182 430 220 151 48 267 64 440 60 108 -2 184 -10 250 -24z"/>
</g>
</svg>
